# xmcd
#
# Track frame offsets:
#	182
#	22277
#	33602
#	47302
#	57102
#	66527
#	76540
#	87007
#	93110
#	109342
#	118387
#	128867
#
# Disc length: 1888 seconds
#
# Revision: 1
# Processed by: cddbd v1.5.2PL0 Copyright (c) Steve Scherf et al.
# Submitted via: EasyCDDAExtractor 6.2.0.3
#
DISCID=9c075e0c
DTITLE=Kristin Hersh - Murder, misery and then goodnight
DYEAR=1998
DGENRE=
TTITLE0=down in the willow garden
TTITLE1=I never will marry
TTITLE2=sweet roseanne
TTITLE3=poor ellen smith
TTITLE4=pretty polly
TTITLE5=little birdy
TTITLE6=mama's gonna buy
TTITLE7=fly around my blue eyed girl
TTITLE8=banks of the ohio
TTITLE9=three nights drunk
TTITLE10=what'll we do with the baby-o
TTITLE11=whole heap of little horses
EXTD=
EXTT0=
EXTT1=
EXTT2=
EXTT3=
EXTT4=
EXTT5=
EXTT6=
EXTT7=
EXTT8=
EXTT9=
EXTT10=
EXTT11=
PLAYORDER=
